PathFileType	4	(X/Y/Z)	/Users/itak/Documents/Research/Walk-IL/dataset/trc/00161_00008.trc
DataRate	CameraRate	NumFrames	NumMarkers	Units	OrigDataRate	OrigDataStartFrame	OrigNumFrames
100.000000	100.000000	4	53	mm	100.000000	356	570
Frame#	Time	RPSI			LPSI			L3			STRN			T10			C7			CLAV			RBAK			LBAK			LSHO			LUPA			LAEL			LAOL			LWTS			LWPS			LFRA			LIFD			LHPS			LHTS			RSHO			RUPA			RAEL			RAOL			RWTS			RWPS			RFRA			RIFD			RHTS			RHPS			RBHD			LFHD			RFHD			LBHD			LHIP			RHIP			RASI			LASI			LKNE			LTHI			LANK			LTIP			LTOE			LMT1			LMT5			LHEE			RKNE			RANK			RTIP			RTOE			RMT1			RMT5			RHEE			RTHI			
		X1	Y1	Z1	X2	Y2	Z2	X3	Y3	Z3	X4	Y4	Z4	X5	Y5	Z5	X6	Y6	Z6	X7	Y7	Z7	X8	Y8	Z8	X9	Y9	Z9	X10	Y10	Z10	X11	Y11	Z11	X12	Y12	Z12	X13	Y13	Z13	X14	Y14	Z14	X15	Y15	Z15	X16	Y16	Z16	X17	Y17	Z17	X18	Y18	Z18	X19	Y19	Z19	X20	Y20	Z20	X21	Y21	Z21	X22	Y22	Z22	X23	Y23	Z23	X24	Y24	Z24	X25	Y25	Z25	X26	Y26	Z26	X27	Y27	Z27	X28	Y28	Z28	X29	Y29	Z29	X30	Y30	Z30	X31	Y31	Z31	X32	Y32	Z32	X33	Y33	Z33	X34	Y34	Z34	X35	Y35	Z35	X36	Y36	Z36	X37	Y37	Z37	X38	Y38	Z38	X39	Y39	Z39	X40	Y40	Z40	X41	Y41	Z41	X42	Y42	Z42	X43	Y43	Z43	X44	Y44	Z44	X45	Y45	Z45	X46	Y46	Z46	X47	Y47	Z47	X48	Y48	Z48	X49	Y49	Z49	X50	Y50	Z50	X51	Y51	Z51	X52	Y52	Z52	X53	Y53	Z53	

357	3.56	-282.8119506835938	1022.285522460938	94.39484405517578	-276.2085876464844	1020.448120117188	-27.15887260437012	-280.4492492675781	1056.024169921875	40.05625534057617	-21.05457305908203	1265.688232421875	27.10725593566895	-315.9303283691406	1216.312133789062	39.34066772460938	-249.7952423095703	1484.831298828125	9.037403106689453	-50.05075454711914	1378.034057617188	9.552787780761719	-312.2675170898438	1316.948120117188	132.5926513671875	-263.0577697753906	1451.63525390625	-89.32625579833984	-192.6081085205078	1430.49365234375	-171.8108825683594	-236.3804779052734	1292.767211914062	-227.4679870605469	-232.9433898925781	1076.845703125	-227.1080017089844	-256.462890625	1067.3017578125	-141.5867004394531	-122.6844940185547	843.4976196289062	-215.7093048095703	-212.6392059326172	823.7763061523438	-228.5477447509766	-226.0064544677734	965.7717895507812	-236.6808471679688	-104.8904800415039	660.2194213867188	-190.2355041503906	-191.7765655517578	753.64208984375	-227.9067077636719	-119.4094696044922	764.4443359375	-234.3464813232422	-176.4609680175781	1473.430786132812	189.2329559326172	-191.42578125	1409.398803710938	263.4248046875	-193.2339019775391	1121.587646484375	331.5884704589844	-206.1753997802734	1109.713256835938	235.8696899414062	-42.66621017456055	903.4924926757812	304.4220581054688	-110.279541015625	882.417236328125	357.634765625	-162.3428344726562	1050.832153320312	348.9281005859375	-16.65715408325195	717.5634765625	283.2109680175781	-8.56590747833252	812.2182006835938	312.5473937988281	-77.60743713378906	801.385009765625	353.7056274414062	-189.683349609375	1651.637573242188	71.38373565673828	-50.71632385253906	1688.146240234375	-92.28073883056641	-28.37376976013184	1703.484008789062	34.49116897583008	-222.3568267822266	1643.206909179688	-63.89226150512695	-161.9414978027344	967.4763793945312	-144.9860534667969	-139.6395568847656	977.3204956054688	229.2953491210938	-54.57901763916016	1007.496032714844	182.5999908447266	-45.41241073608398	1006.315368652344	-74.72707366943359	52.13774871826172	503.2569274902344	-105.5208282470703	-9.96132755279541	631.8176879882812	-138.9027557373047	108.4846725463867	33.99177551269531	-101.0107345581055	83.71291351318359	273.6351318359375	-114.8570785522461	317.4891357421875	90.87374114990234	-96.62187194824219	276.7646484375	78.41378021240234	-45.48381042480469	210.1936645507812	47.91823577880859	-145.4492950439453	65.06713104248047	29.59463882446289	-26.88522338867188	-230.4927368164062	487.5622253417969	195.8448791503906	-558.2802124023438	101.4428405761719	167.8538055419922	-278.2238464355469	368.5380554199219	175.6718902587891	-357.64306640625	40.56613540649414	144.3681640625	-403.9760131835938	43.38114547729492	95.66793823242188	-464.0801391601562	44.29894638061523	207.8744354248047	-598.4356079101562	134.232666015625	98.46868896484375	-124.9462509155273	743.0625	230.2554321289062	
358	3.57	-270.279052734375	1023.468383789062	92.29065704345703	-263.9138488769531	1022.294311523438	-29.4717845916748	-268.0711669921875	1057.714111328125	37.83389663696289	-9.592644691467285	1267.584594726562	24.9716968536377	-304.3892211914062	1217.337524414062	36.24713516235352	-238.9949340820312	1485.956298828125	5.779403686523438	-38.91816329956055	1379.811645507812	7.231861591339111	-301.4174499511719	1317.927124023438	129.2821502685547	-251.7751159667969	1452.645751953125	-92.63134765625	-180.8558349609375	1431.603759765625	-174.8393707275391	-224.2444458007812	1293.730590820312	-230.5184173583984	-221.3121185302734	1077.928955078125	-229.3347320556641	-244.7248077392578	1068.558471679688	-143.8106689453125	-115.2455902099609	842.718017578125	-217.2553100585938	-205.5037536621094	824.7822265625	-230.0323333740234	-216.1163635253906	966.9573974609375	-238.5409088134766	-101.2338638305664	659.172607421875	-190.8180389404297	-186.1036376953125	754.2523803710938	-229.0507202148438	-113.570426940918	763.4415893554688	-235.4772491455078	-166.4277191162109	1474.991821289062	186.2993469238281	-181.6936798095703	1410.983032226562	260.4295349121094	-184.6361694335938	1123.064331054688	327.8973999023438	-196.7080230712891	1111.424926757812	232.0518646240234	-35.06997680664062	904.1430053710938	301.3757629394531	-102.9493103027344	883.533447265625	354.3498840332031	-154.1352233886719	1052.172729492188	345.4032592773438	-10.15238475799561	718.0371704101562	280.2259521484375	-1.584097862243652	812.6287231445312	309.5529479980469	-70.78514862060547	802.2783203125	350.5064392089844	-179.6896209716797	1652.826904296875	68.5152587890625	-39.97800445556641	1690.115356445312	-94.29389953613281	-18.37101554870605	1705.139770507812	32.6231689453125	-211.6846923828125	1644.683227539062	-66.97138214111328	-149.4555969238281	970.111328125	-147.2989044189453	-127.2395553588867	977.9598999023438	227.1284332275391	-42.43787384033203	1008.777587890625	180.3385772705078	-32.91267013549805	1008.464904785156	-76.80998992919922	62.31972885131836	504.2179870605469	-107.1708221435547	1.228587508201599	633.4837646484375	-140.5294342041016	109.8105392456055	34.03727340698242	-101.2505264282227	90.58620452880859	273.8136901855469	-115.8825454711914	320.7599792480469	84.91571807861328	-96.957275390625	279.558349609375	74.11068725585938	-45.66074752807617	212.0698547363281	44.97829818725586	-145.6594543457031	66.41037750244141	31.12392997741699	-27.07917404174805	-216.9928741455078	487.7302856445312	195.7685699462891	-553.4011840820312	108.3334655761719	166.7388916015625	-266.974365234375	369.1885986328125	176.157470703125	-357.6634216308594	40.5319938659668	144.2420654296875	-402.1744384765625	43.32720947265625	95.21558380126953	-462.4700317382812	46.44763565063477	207.3680725097656	-591.0780029296875	142.9647674560547	97.03265380859375	-112.2441482543945	743.8434448242188	228.1644897460938	
359	3.58	-257.8697509765625	1024.802001953125	90.25213623046875	-251.8013000488281	1024.275634765625	-31.68465614318848	-255.819091796875	1059.570556640625	35.66188430786133	1.839983224868774	1269.666015625	22.80824279785156	-292.8595581054688	1218.522094726562	33.23577117919922	-228.2065582275391	1487.215454101562	2.546591281890869	-27.81536483764648	1381.78955078125	4.896513938903809	-290.5334167480469	1319.110107421875	126.0480422973633	-240.5061645507812	1453.827514648438	-95.8858642578125	-169.1466674804688	1432.961547851562	-177.8253631591797	-212.0475006103516	1294.970581054688	-233.6190948486328	-209.4768218994141	1079.312866210938	-231.6734161376953	-232.9080505371094	1070.073120117188	-146.1707916259766	-107.6204376220703	842.3119506835938	-218.8682556152344	-198.1390533447266	826.1832275390625	-231.8157653808594	-205.9747772216797	968.4951782226562	-240.5838317871094	-97.55696868896484	658.5355224609375	-191.4304351806641	-180.2272338867188	755.2779541015625	-230.4591217041016	-107.537956237793	762.8043212890625	-236.6668395996094	-156.3819274902344	1476.765502929688	183.3413238525391	-171.9429931640625	1412.838012695312	257.4341430664062	-176.0934448242188	1124.81982421875	324.1858215332031	-187.2712860107422	1113.434692382812	228.1664123535156	-27.44244003295898	905.093017578125	298.4048461914062	-95.63055419921875	884.9314575195312	351.0846862792969	-145.9763641357422	1053.79345703125	341.87890625	-3.560572147369385	718.8185424804688	277.3236999511719	5.438483715057373	813.3463134765625	306.6596374511719	-63.94715881347656	803.4601440429688	347.357421875	-169.6745758056641	1654.171020507812	65.59515380859375	-29.18636131286621	1692.201171875	-96.29830169677734	-8.351764678955078	1706.917236328125	30.76059532165527	-200.9652099609375	1646.315307617188	-70.06816864013672	-137.2339324951172	972.8062133789062	-149.5642700195312	-114.955810546875	978.7299194335938	224.908935546875	-30.42517471313477	1010.246032714844	177.9701538085938	-20.62704467773438	1010.798889160156	-78.98665618896484	72.39308929443359	505.2424011230469	-108.9042434692383	12.46840286254883	635.3718872070312	-142.0927429199219	111.016716003418	34.02672958374023	-101.5937271118164	97.07102203369141	274.046630859375	-117.0758438110352	323.52392578125	79.4912109375	-96.8426513671875	281.8153076171875	70.26521301269531	-45.5106201171875	213.8220367431641	42.2930793762207	-145.7679443359375	67.52703857421875	32.54582977294922	-27.47985458374023	-202.66552734375	487.7585144042969	195.7487640380859	-547.7302856445312	115.7216415405273	165.2800903320312	-254.8813171386719	369.7679443359375	176.720458984375	-357.59326171875	40.42864990234375	144.1528625488281	-400.044189453125	43.31282424926758	94.73736572265625	-460.525390625	49.1082878112793	206.6973724365234	-582.6007690429688	152.0324401855469	95.17973327636719	-99.28164672851562	744.7198486328125	226.0130310058594	
360	3.59	-245.6572570800781	1026.221801757812	88.22904205322266	-239.8931427001953	1026.30908203125	-33.83884048461914	-243.7382659912109	1061.483276367188	33.49962615966797	13.22358798980713	1271.87548828125	20.62610054016113	-281.3594055175781	1219.817504882812	30.30766868591309	-217.4398345947266	1488.565673828125	-0.6427782773971558	-16.75444221496582	1383.912963867188	2.555402278900146	-279.6293029785156	1320.45849609375	122.899055480957	-229.2643737792969	1455.140991210938	-99.06815338134766	-157.5009002685547	1434.531494140625	-180.7511596679688	-199.8258514404297	1296.45556640625	-236.7574615478516	-197.4838104248047	1080.959716796875	-234.1085357666016	-221.0606079101562	1071.82470703125	-148.6439666748047	-99.76975250244141	842.2673950195312	-220.5591583251953	-190.4890899658203	827.942626953125	-233.9169769287109	-195.5858154296875	970.3449096679688	-242.8115234375	-93.76837921142578	658.302490234375	-192.1083221435547	-174.0743713378906	756.6865234375	-232.1593017578125	-101.2449493408203	762.5250244140625	-237.9344635009766	-146.3232727050781	1478.698608398438	180.3746643066406	-162.1694488525391	1414.909790039062	254.4570465087891	-167.6016693115234	1126.80224609375	320.4960327148438	-177.8447875976562	1115.691162109375	224.2812652587891	-19.75969505310059	906.3041381835938	295.525634765625	-88.2969970703125	886.55810546875	347.8548583984375	-137.8594055175781	1055.642333984375	338.3862609863281	3.149413347244263	719.8722534179688	274.4728698730469	12.53279781341553	814.3311157226562	303.8633422851562	-57.05631256103516	804.8775634765625	344.25634765625	-159.6539001464844	1655.6162109375	62.63656234741211	-18.36316871643066	1694.35546875	-98.28456115722656	1.672041296958923	1708.772827148438	28.9144401550293	-190.2216644287109	1648.046630859375	-73.16233062744141	-125.2508697509766	975.4550170898438	-151.8108367919922	-102.9146270751953	979.5865478515625	222.644287109375	-18.61949729919434	1011.853210449219	175.5259094238281	-8.565509796142578	1013.22265625	-81.24242401123047	82.19297790527344	506.2249145507812	-110.6672973632812	23.62559700012207	637.3407592773438	-143.6226348876953	112.1111907958984	33.96464538574219	-102.0114440917969	103.1548690795898	274.277587890625	-118.3615112304688	325.8315124511719	74.58478546142578	-96.33467102050781	283.608154296875	66.83741760253906	-45.08114242553711	215.4347381591797	39.92119216918945	-145.7934112548828	68.43692779541016	33.81697082519531	-28.0440502166748	-187.5394744873047	487.6156921386719	195.7725677490234	-541.2181396484375	123.5995635986328	163.4640655517578	-241.939208984375	370.2559814453125	177.3387451171875	-357.3286437988281	40.20127105712891	144.1485748291016	-397.5173950195312	43.44885635375977	94.27882385253906	-458.2034912109375	52.35135269165039	205.8361663818359	-572.9774169921875	161.3853607177734	92.91355895996094	-86.14493560791016	745.656494140625	223.8451385498047	
